<?xml version="1.0" encoding="utf-8"?>
<!-- Generator: Adobe Illustrator 27.2.0, SVG Export Plug-In . SVG Version: 6.00 Build 0)  -->
<svg version="1.1" id="Layer_1" xmlns="http://www.w3.org/2000/svg" xmlns:xlink="http://www.w3.org/1999/xlink" x="0px" y="0px"
	 viewBox="0 0 566.93 255.12" style="enable-background:new 0 0 566.93 255.12;" xml:space="preserve">
<style type="text/css">
	.st0{fill:#00837B;}
	.st1{fill:#414042;}
	.st2{fill:#282828;}
	
		.st3{clip-path:url(#SVGID_00000118356082910238204560000008122187181216534709_);fill-rule:evenodd;clip-rule:evenodd;fill:#F59C21;}
	.st4{fill:#F59C21;}
	
		.st5{clip-path:url(#SVGID_00000091724282964334928210000006905611521650782092_);fill-rule:evenodd;clip-rule:evenodd;fill:#F59C21;}
	
		.st6{clip-path:url(#SVGID_00000049207289399202124170000010317825367225968281_);fill-rule:evenodd;clip-rule:evenodd;fill:#F59C21;}
	
		.st7{clip-path:url(#SVGID_00000153677119084690468600000014696117610346879914_);fill-rule:evenodd;clip-rule:evenodd;fill:#F59C21;}
	
		.st8{clip-path:url(#SVGID_00000008865004942432617200000015618655743440951208_);fill-rule:evenodd;clip-rule:evenodd;fill:#F59C21;}
	
		.st9{clip-path:url(#SVGID_00000144300335161292768550000002469895559993935496_);fill-rule:evenodd;clip-rule:evenodd;fill:#F59C21;}
	
		.st10{clip-path:url(#SVGID_00000123402899344335764820000004467356843753590403_);fill-rule:evenodd;clip-rule:evenodd;fill:#F59C21;}
	
		.st11{clip-path:url(#SVGID_00000128450731977405115610000001864704914482747554_);fill-rule:evenodd;clip-rule:evenodd;fill:#F59C21;}
	.st12{fill:#FFFFFF;}
	
		.st13{clip-path:url(#SVGID_00000080182141623293847730000003861711377566356669_);fill-rule:evenodd;clip-rule:evenodd;fill:#F59C21;}
	
		.st14{clip-path:url(#SVGID_00000104687989393636797180000008072693661703854513_);fill-rule:evenodd;clip-rule:evenodd;fill:#F59C21;}
	
		.st15{clip-path:url(#SVGID_00000060022012584441858510000011529787088900255399_);fill-rule:evenodd;clip-rule:evenodd;fill:#F59C21;}
	
		.st16{clip-path:url(#SVGID_00000057848302981311662880000006701763599501826457_);fill-rule:evenodd;clip-rule:evenodd;fill:#F59C21;}
	
		.st17{clip-path:url(#SVGID_00000050639237369175354010000008675702693537207172_);fill-rule:evenodd;clip-rule:evenodd;fill:#F59C21;}
	
		.st18{clip-path:url(#SVGID_00000166658856496576919400000000560542894791012031_);fill-rule:evenodd;clip-rule:evenodd;fill:#F59C21;}
	
		.st19{clip-path:url(#SVGID_00000090288320529384987380000014963296849819513755_);fill-rule:evenodd;clip-rule:evenodd;fill:#F59C21;}
	
		.st20{clip-path:url(#SVGID_00000080185039810068922860000006448783587935348910_);fill-rule:evenodd;clip-rule:evenodd;fill:#F59C21;}
	.st21{fill:#FF9E18;}
	.st22{fill:#231F20;}
	.st23{fill:#348F41;}
	.st24{fill:#E1251B;}
	.st25{fill:#FFCD00;}
	.st26{fill:#3D1152;}
	
		.st27{clip-path:url(#SVGID_00000157289516173222791120000012418418457351466624_);fill-rule:evenodd;clip-rule:evenodd;fill:#F59C21;}
	
		.st28{clip-path:url(#SVGID_00000017496491072595169660000000485069015481041824_);fill-rule:evenodd;clip-rule:evenodd;fill:#F59C21;}
	
		.st29{clip-path:url(#SVGID_00000124141613810304569470000010029649677747841443_);fill-rule:evenodd;clip-rule:evenodd;fill:#F59C21;}
	
		.st30{clip-path:url(#SVGID_00000147199058049039058090000010927535866696861098_);fill-rule:evenodd;clip-rule:evenodd;fill:#F59C21;}
	.st31{fill:#4E4E4E;}
	
		.st32{clip-path:url(#SVGID_00000080922452350916567160000004470485250712856449_);fill-rule:evenodd;clip-rule:evenodd;fill:#F59C21;}
	
		.st33{clip-path:url(#SVGID_00000033370869831153803640000014284751740511902120_);fill-rule:evenodd;clip-rule:evenodd;fill:#F59C21;}
	
		.st34{clip-path:url(#SVGID_00000008150801815310973790000007783270710593376655_);fill-rule:evenodd;clip-rule:evenodd;fill:#F59C21;}
	
		.st35{clip-path:url(#SVGID_00000183929526313184797960000000633198643772044954_);fill-rule:evenodd;clip-rule:evenodd;fill:#F59C21;}
</style>
<g>
	<g>
		<g>
			<defs>
				<path id="SVGID_00000005970499364329130810000006523769607000080531_" d="M187.46,202.38H157.3l-4.84,14.28h-20.61l29.24-80.82
					h22.79l29.24,80.82H192.3L187.46,202.38z M172.38,157.6l-9.9,29.59h19.92L172.38,157.6z"/>
			</defs>
			<clipPath id="SVGID_00000088849471658854748150000011077998008042922171_">
				<use xlink:href="#SVGID_00000005970499364329130810000006523769607000080531_"  style="overflow:visible;"/>
			</clipPath>
		</g>
		<g>
			<defs>
				<path id="SVGID_00000106119775065553231720000012162387878995626138_" d="M187.46,202.38H157.3l-4.84,14.28h-20.61l29.24-80.82
					h22.79l29.24,80.82H192.3L187.46,202.38z M172.38,157.6l-9.9,29.59h19.92L172.38,157.6z"/>
			</defs>
			<clipPath id="SVGID_00000054950458825129293250000001567269167328113569_">
				<use xlink:href="#SVGID_00000106119775065553231720000012162387878995626138_"  style="overflow:visible;"/>
			</clipPath>
			
				<rect x="130.01" y="125.78" style="clip-path:url(#SVGID_00000054950458825129293250000001567269167328113569_);fill-rule:evenodd;clip-rule:evenodd;fill:#F59C21;" width="85.22" height="95.99"/>
		</g>
		<g>
			<defs>
				<path id="SVGID_00000127036798024380056510000013234258494616521108_" d="M187.46,202.38H157.3l-4.84,14.28h-20.61l29.24-80.82
					h22.79l29.24,80.82H192.3L187.46,202.38z M172.38,157.6l-9.9,29.59h19.92L172.38,157.6z"/>
			</defs>
			<clipPath id="SVGID_00000002372178805281283410000011962737754452035256_">
				<use xlink:href="#SVGID_00000127036798024380056510000013234258494616521108_"  style="overflow:visible;"/>
			</clipPath>
		</g>
	</g>
	<g>
		<g>
			<defs>
				<path id="SVGID_00000058575806864032877570000003992108934376821153_" d="M105.98,135.84h19.69v55.03
					c0,17.38-10.59,26.59-26.59,26.59c-16.58,0-28.21-9.67-28.21-27.86h19.57c0,6.91,2.99,10.25,8.06,10.25
					c4.72,0,7.48-2.99,7.48-8.98V135.84z"/>
			</defs>
			<clipPath id="SVGID_00000165926285800198577720000005034747160620875180_">
				<use xlink:href="#SVGID_00000058575806864032877570000003992108934376821153_"  style="overflow:visible;"/>
			</clipPath>
		</g>
		<g>
			<defs>
				<path id="SVGID_00000070806072947499768280000012694760304907854239_" d="M105.98,135.84h19.69v55.03
					c0,17.38-10.59,26.59-26.59,26.59c-16.58,0-28.21-9.67-28.21-27.86h19.57c0,6.91,2.99,10.25,8.06,10.25
					c4.72,0,7.48-2.99,7.48-8.98V135.84z"/>
			</defs>
			<clipPath id="SVGID_00000122692292916167220660000006733940801805185457_">
				<use xlink:href="#SVGID_00000070806072947499768280000012694760304907854239_"  style="overflow:visible;"/>
			</clipPath>
			
				<rect x="66.05" y="125.78" style="clip-path:url(#SVGID_00000122692292916167220660000006733940801805185457_);fill-rule:evenodd;clip-rule:evenodd;fill:#F59C21;" width="63.96" height="95.99"/>
		</g>
		<g>
			<defs>
				<path id="SVGID_00000104695197522591055250000015821993315241531553_" d="M105.98,135.84h19.69v55.03
					c0,17.38-10.59,26.59-26.59,26.59c-16.58,0-28.21-9.67-28.21-27.86h19.57c0,6.91,2.99,10.25,8.06,10.25
					c4.72,0,7.48-2.99,7.48-8.98V135.84z"/>
			</defs>
			<clipPath id="SVGID_00000178204862936135624840000001983447730651648425_">
				<use xlink:href="#SVGID_00000104695197522591055250000015821993315241531553_"  style="overflow:visible;"/>
			</clipPath>
		</g>
	</g>
	<g>
		<g>
			<g>
				<path class="st4" d="M285.06,135.89v49.9l-0.69-0.87l-8.03,6.88c-0.01,0-0.02-0.01-0.02-0.01c-0.19-0.02-0.38,0.02-0.54,0.12
					c-0.05,0.03-0.09,0.06-0.13,0.09c-0.01,0.01-0.02,0.01-0.02,0.02l-0.1,0.08l-4.21,3.55c-0.06,0.05-0.11,0.12-0.16,0.18
					c-0.03,0.05-0.06,0.09-0.08,0.14c-0.02,0.05-0.04,0.11-0.06,0.17c-0.02,0.07,0,0.15,0,0.23l-1.59,1.36l15.64,18.32v0.09h0.08
					l0.01,0.01l0.01-0.01h19.6v-80.25H285.06z"/>
				<path class="st4" d="M253.45,162.77c0.06-0.01,0.12-0.03,0.17-0.05c0.05-0.02,0.1-0.05,0.15-0.08c0.01-0.01,0.02-0.01,0.03-0.02
					l4.27-3.7c0.02-0.01,0.03-0.03,0.04-0.05c0.04-0.04,0.07-0.08,0.1-0.13c0.03-0.05,0.05-0.1,0.07-0.15
					c0.02-0.05,0-0.11,0.01-0.16l2.09-1.79l-18.04-20.75l-0.04,0.03v-0.03h-19.69v80.25h19.69v-50.03l3.13,3.34l7.82-6.7
					C253.31,162.76,253.38,162.78,253.45,162.77z"/>
				<g>
					<path class="st4" d="M262.98,179.37c-0.02-0.41-0.3-0.72-0.66-0.82c-0.09-0.28-0.31-0.49-0.58-0.58c0,0.04,0.01,0.07,0.02,0.11
						l0.02,0.3c0,0.05,0,0.1-0.02,0.14L261.2,180l-0.32,0.88l0.18,1.57l0.17,0.4l1.18,2.76l0.55,0.23l0.45,0.19l0.31,0.13l-0.8-1.52
						l-0.28-1.41l0.28-0.98c-0.01,0-0.01-0.01-0.02-0.01c-0.15-0.1-0.26-0.24-0.34-0.4c-0.11-0.22-0.14-0.49-0.1-0.75
						c0.03-0.2,0.1-0.41,0.22-0.59c0.02-0.03,0.03-0.06,0.05-0.08c0.03-0.04,0.06-0.07,0.09-0.11c-0.02-0.01-0.04-0.02-0.06-0.03
						l0.22-0.6L262.98,179.37z"/>
					<path class="st4" d="M269.66,193.21c0.23,0.24,0.41,0.51,0.55,0.8c0.06,0.12,0.1,0.24,0.15,0.36l0.36,1.08
						c0.03,0.09,0.07,0.18,0.11,0.28c0.06,0.12,0.13,0.25,0.21,0.38c0.05-0.06,0.11-0.12,0.17-0.17l4.77-4.02
						c-0.2-0.19-0.39-0.38-0.49-0.59c-0.01-0.02-0.02-0.04-0.03-0.07l-1.55-4.1c-0.04-0.12-0.1-0.24-0.15-0.35
						c-0.23-0.49-0.56-0.93-0.96-1.3l-2.8-2.62c-0.31-0.29-0.68-0.52-1.07-0.69l-3.06-1.44c-0.16-0.07-0.33-0.12-0.5-0.14
						l-1.63-0.35c-0.24-0.03-0.44,0.06-0.6,0.21c0.14-0.06,0.3-0.07,0.46-0.02l0.6,0.18c0.37,0.11,0.59,0.51,0.48,0.88
						c-0.11,0.37-0.51,0.59-0.88,0.48l-0.6-0.18c-0.05-0.01-0.09-0.03-0.13-0.05c-0.09-0.05-0.16-0.11-0.22-0.19
						c0.01,0.04,0.03,0.07,0.04,0.11c0.04,0.07,0.09,0.14,0.15,0.2c0.03,0.02,0.05,0.05,0.08,0.07l1.05,0.46l1.89,0.64
						c0,0,1.16,1.02,1.33,1.24c0.01,0.02,0.03,0.04,0.05,0.08c0.2,0.42,0.64,1.99,0.64,1.99l-1.28,1.36l-1.96-0.71l-0.85-0.36
						l-0.36-0.15l-0.74-0.31l-0.72-0.31l-1.08-2.53l-0.35-0.81l-0.13-1.1l-0.07-0.61l0.9-2.44l-0.02-0.3c0-0.06-0.01-0.11-0.03-0.17
						c-0.02-0.07-0.04-0.14-0.07-0.2c-0.13-0.26-0.37-0.46-0.66-0.52c0.11,0.2,0.12,0.45,0.02,0.68l-0.28,0.65
						c-0.16,0.38-0.59,0.57-0.98,0.44l-0.89,2.11c-0.1,0.25-0.13,0.52-0.07,0.78l1.02,4.63c0.03,0.12,0.07,0.24,0.12,0.36
						c0.08,0.17,0.19,0.32,0.32,0.45l3.99,4.02l4.41,1.11c0.46,0.12,0.88,0.34,1.22,0.66C269.58,193.13,269.62,193.17,269.66,193.21
						z"/>
				</g>
				<g>
					<path class="st4" d="M268.99,169.55l0.05,0.16l0.42,1.22l1.01,2.94c0.04,0.12,0.07,0.25,0.07,0.38l0.16,4.53l0.01,0.4
						c0.01,0.18-0.03,0.34-0.09,0.5c-0.07,0.19-0.18,0.36-0.33,0.5c0.12,0.02,0.24,0.01,0.36-0.02c0.22-0.06,0.4-0.21,0.51-0.39
						c0.03-0.01,0.07-0.01,0.1-0.02c0.29-0.09,0.5-0.33,0.56-0.62c0.24-0.16,0.38-0.44,0.34-0.73l-0.47-4.03
						c-0.01-0.08-0.03-0.15-0.06-0.22l-1.5-3.44c-0.03-0.07-0.07-0.13-0.12-0.19l-1.8-2.11l0.58,0.8
						C268.89,169.32,268.95,169.43,268.99,169.55z"/>
					<path class="st4" d="M258.4,168.48l2.42-0.05c0.14,0,0.28,0.03,0.4,0.08c0.11,0.05,0.2,0.11,0.29,0.2l5.32,4.64
						c0,0,0.01,0,0.01,0.01c0.1,0.11,0.36,0.47,0.41,0.61c0,0,0,0.01,0,0.01l1.27,5.53c0.09,0.26,0.27,0.46,0.51,0.56
						c0.18,0.08,0.39,0.11,0.6,0.06c0.01,0,0.02-0.01,0.03-0.01c-0.33-0.01-0.61-0.25-0.64-0.59l-0.06-0.57
						c-0.03-0.25,0.1-0.48,0.29-0.61c0.09-0.06,0.18-0.1,0.29-0.11c0.15-0.02,0.29,0.03,0.41,0.1c0.16,0.1,0.28,0.28,0.3,0.49
						l0.06,0.56l0,0.01c0,0.01,0,0.03,0,0.04c0-0.01,0.01-0.03,0.01-0.04c0.02-0.07,0.02-0.15,0.02-0.22l-0.06-1.72l-0.11-3.21
						c0-0.09-0.02-0.18-0.05-0.27l-1.49-4.32c-0.03-0.07-0.06-0.14-0.11-0.2c-0.01-0.01-0.01-0.03-0.02-0.04l-1.59-2.2l-1.65-2.28
						l-2.03-2.8c-0.06-0.08-0.13-0.15-0.21-0.21l-4.77-3.46c-0.03,0.04-0.07,0.08-0.11,0.11l-4.86,4.2l1.2,0.9
						c0.3,0.22,0.44,0.6,0.35,0.97l-1.02,4.32c-0.06,0.26-0.23,0.49-0.47,0.61l-1.81,0.96c-0.39,0.21-0.56,0.7-0.38,1.1l0.14,0.32
						c0.11,0.24,0.29,0.41,0.51,0.51c0.26,0.12,0.58,0.12,0.86-0.02l2.86-1.41c0.1-0.05,0.19-0.12,0.27-0.2l1.92-2.07
						C257.9,168.6,258.15,168.49,258.4,168.48z M252.56,172.3c-0.4,0.2-0.9,0.04-1.11-0.37l-0.11-0.21c-0.2-0.4-0.04-0.9,0.37-1.11
						c0.4-0.2,0.9-0.04,1.11,0.37l0.11,0.21C253.13,171.59,252.97,172.09,252.56,172.3z"/>
				</g>
			</g>
		</g>
		<g>
			<g>
				<defs>
					<path id="SVGID_00000029017554888427825000000005295933493509149583_" d="M369.79,202.38h-30.16l-4.84,14.28h-20.61
						l29.24-80.82h22.79l29.24,80.82h-20.84L369.79,202.38z M354.7,157.6l-9.9,29.59h19.92L354.7,157.6z"/>
				</defs>
				<clipPath id="SVGID_00000088814722707410017970000012782418915242729888_">
					<use xlink:href="#SVGID_00000029017554888427825000000005295933493509149583_"  style="overflow:visible;"/>
				</clipPath>
			</g>
			<g>
				<defs>
					<path id="SVGID_00000057135302969932628020000014084063327022438847_" d="M369.79,202.38h-30.16l-4.84,14.28h-20.61
						l29.24-80.82h22.79l29.24,80.82h-20.84L369.79,202.38z M354.7,157.6l-9.9,29.59h19.92L354.7,157.6z"/>
				</defs>
				<clipPath id="SVGID_00000023998388298292222230000012550825010305421993_">
					<use xlink:href="#SVGID_00000057135302969932628020000014084063327022438847_"  style="overflow:visible;"/>
				</clipPath>
				
					<rect x="312.34" y="129.84" style="clip-path:url(#SVGID_00000023998388298292222230000012550825010305421993_);fill-rule:evenodd;clip-rule:evenodd;fill:#F59C21;" width="85.06" height="95.99"/>
			</g>
			<g>
				<defs>
					<path id="SVGID_00000040558950349849575180000010373077655652016288_" d="M369.79,202.38h-30.16l-4.84,14.28h-20.61
						l29.24-80.82h22.79l29.24,80.82h-20.84L369.79,202.38z M354.7,157.6l-9.9,29.59h19.92L354.7,157.6z"/>
				</defs>
				<clipPath id="SVGID_00000152256988079526522620000012944775356992975287_">
					<use xlink:href="#SVGID_00000040558950349849575180000010373077655652016288_"  style="overflow:visible;"/>
				</clipPath>
			</g>
		</g>
		<g>
			<g>
				<defs>
					<path id="SVGID_00000028296425056055313890000010022920059296193972_" d="M404.54,135.32h23.25l22.68,55.95l22.45-55.95h23.14
						v80.82h-19.69v-48.47l-18.07,48.47h-15.89l-18.19-48.58v48.58h-19.69V135.32z"/>
				</defs>
				<clipPath id="SVGID_00000076597951611879627000000014373144567485688218_">
					<use xlink:href="#SVGID_00000028296425056055313890000010022920059296193972_"  style="overflow:visible;"/>
				</clipPath>
			</g>
			<g>
				<defs>
					<path id="SVGID_00000009578384437324753060000005935864223523405994_" d="M404.54,135.32h23.25l22.68,55.95l22.45-55.95h23.14
						v80.82h-19.69v-48.47l-18.07,48.47h-15.89l-18.19-48.58v48.58h-19.69V135.32z"/>
				</defs>
				<clipPath id="SVGID_00000091006460133857212300000011074172173751802771_">
					<use xlink:href="#SVGID_00000009578384437324753060000005935864223523405994_"  style="overflow:visible;"/>
				</clipPath>
				
					<rect x="399.56" y="121.79" style="clip-path:url(#SVGID_00000091006460133857212300000011074172173751802771_);fill-rule:evenodd;clip-rule:evenodd;fill:#F59C21;" width="100.64" height="95.99"/>
			</g>
			<g>
				<defs>
					<path id="SVGID_00000005268558360405545570000011022719687888237214_" d="M404.54,135.32h23.25l22.68,55.95l22.45-55.95h23.14
						v80.82h-19.69v-48.47l-18.07,48.47h-15.89l-18.19-48.58v48.58h-19.69V135.32z"/>
				</defs>
				<clipPath id="SVGID_00000026148439000222605760000015052467795366418599_">
					<use xlink:href="#SVGID_00000005268558360405545570000011022719687888237214_"  style="overflow:visible;"/>
				</clipPath>
			</g>
		</g>
	</g>
	<g>
		<g>
			<polygon class="st21" points="415.16,86.54 415.16,82.02 396.14,82.02 396.14,116.44 415.92,116.44 415.92,111.92 401.38,111.92 
				401.38,100.74 414.38,100.74 414.38,100.29 414.38,96.25 401.38,96.25 401.38,86.54 			"/>
			<path class="st21" d="M434.05,92.56l3.11,9.06h-8.89l3.08-9.1c0.55-1.54,0.96-3.11,1.33-4.62
				C433.05,89.38,433.46,90.92,434.05,92.56 M429.91,82.02l-11.73,34.41h5.4l3.49-10.54h11.25l3.59,10.54h5.54l-11.73-34.41H429.91z
				"/>
			<path class="st21" d="M459.15,112.47c-2.87,0-5.61-0.92-7.46-2.12l-0.48-0.31l-0.17,0.55l-1.23,3.93l0.27,0.17
				c0.96,0.65,2.33,1.2,3.87,1.61c1.54,0.41,3.28,0.65,4.93,0.65c4.04,0,7.08-1.16,9.1-3.01s3.01-4.41,3.01-7.12
				c0-2.53-0.75-4.58-2.26-6.26c-1.51-1.64-3.69-2.91-6.53-4c-2.29-0.89-3.93-1.71-4.93-2.63c-0.99-0.92-1.44-1.95-1.44-3.42
				c0-1.03,0.38-2.16,1.3-3.04c0.92-0.89,2.36-1.54,4.55-1.54c2.94,0,5.1,0.92,6.09,1.54l0.48,0.27l1.47-4.41l-0.31-0.17
				c-1.54-0.89-4.14-1.71-7.59-1.71c-3.35,0-6.16,0.99-8.14,2.7c-1.98,1.71-3.15,4.1-3.15,6.84c0,2.46,0.89,4.48,2.5,6.09
				c1.61,1.61,3.87,2.87,6.64,3.87c2.22,0.82,3.76,1.71,4.69,2.67c0.92,0.99,1.33,2.05,1.33,3.52c0,1.57-0.58,2.87-1.68,3.8
				C462.95,111.92,461.31,112.47,459.15,112.47"/>
			<polygon class="st21" points="495.31,86.54 495.31,82.02 476.26,82.02 476.26,116.44 496.06,116.44 496.06,111.92 481.52,111.92 
				481.52,100.74 494.52,100.74 494.52,100.29 494.52,96.25 481.52,96.25 481.52,86.54 			"/>
		</g>
		<g>
			<path class="st21" d="M251.52,62.39c-0.44,0-0.79,0.1-0.92,0.38c-0.51,0.82,1.09,2.81,3.59,4.41c1.78,1.13,3.52,1.81,4.58,1.81
				c0.44,0,0.79-0.1,0.92-0.34c0.55-0.82-1.09-2.81-3.63-4.41C254.35,63.04,252.58,62.39,251.52,62.39"/>
			<path class="st21" d="M225.79,47.03c-0.51,0.82,1.09,2.81,3.59,4.41c2.53,1.61,4.99,2.26,5.51,1.44
				c0.55-0.82-1.09-2.81-3.59-4.41S226.3,46.21,225.79,47.03"/>
			<path class="st21" d="M253.12,41.01c-0.96,0-2.63,1.51-4.07,3.69c-1.61,2.53-2.26,4.99-1.44,5.54c0.1,0.07,0.24,0.1,0.38,0.1
				c0.96,0,2.63-1.51,4.07-3.69c1.61-2.53,2.26-4.99,1.44-5.54C253.4,41.04,253.26,41.01,253.12,41.01"/>
			<path class="st21" d="M232.12,75.18c0.96,0,2.63-1.51,4.07-3.69c1.61-2.53,2.26-4.99,1.44-5.54c-0.1-0.07-0.24-0.1-0.38-0.1
				c-0.96,0-2.63,1.51-4.07,3.69c-1.61,2.53-2.26,4.99-1.44,5.54C231.85,75.15,231.95,75.18,232.12,75.18"/>
			<path class="st21" d="M236.81,44.36c-1.37-2.26-3.04-3.8-4-3.8c-0.14,0-0.24,0.03-0.34,0.1c-0.86,0.51-0.24,3.01,1.3,5.54
				c1.37,2.26,3.04,3.8,4,3.8c0.14,0,0.24-0.03,0.34-0.1C238.96,49.42,238.38,46.93,236.81,44.36"/>
			<path class="st21" d="M242.62,48.53L242.62,48.53c0.99,0,1.81-2.39,1.88-5.4c0.07-3.01-0.68-5.44-1.68-5.47l0,0
				c-0.99,0-1.81,2.39-1.88,5.4C240.91,46.07,241.63,48.5,242.62,48.53"/>
			<path class="st21" d="M246.18,66.63c-0.79,0.58,0.03,3.01,1.81,5.4c1.51,2.05,3.25,3.42,4.24,3.42c0.17,0,0.31-0.03,0.44-0.14
				c0.79-0.58-0.03-3.01-1.81-5.4c-1.51-2.05-3.25-3.42-4.24-3.42C246.42,66.49,246.28,66.53,246.18,66.63"/>
			<path class="st21" d="M240.54,72.72c0.24,2.94,1.2,5.27,2.16,5.27h0.03c0.96-0.1,1.57-2.57,1.33-5.54
				c-0.24-2.94-1.2-5.27-2.16-5.27c-0.03,0-0.03,0-0.07,0C240.88,67.25,240.3,69.74,240.54,72.72"/>
			<path class="st21" d="M234.24,61.81c-0.17-0.24-0.51-0.38-0.96-0.38c-1.06,0-2.8,0.62-4.58,1.74c-2.53,1.54-4.17,3.52-3.66,4.34
				c0.14,0.24,0.48,0.38,0.96,0.38c1.06,0,2.8-0.62,4.58-1.74C233.11,64.58,234.75,62.63,234.24,61.81"/>
			<path class="st21" d="M222.61,57.6c0.03,0.92,2.19,1.61,4.93,1.61c0.17,0,0.38,0,0.55,0c2.98-0.1,5.4-0.99,5.37-1.95
				c-0.03-0.92-2.19-1.61-4.93-1.61c-0.17,0-0.38,0-0.58,0C224.97,55.72,222.58,56.61,222.61,57.6"/>
			<path class="st21" d="M259.11,47.58c-1.06,0-2.8,0.62-4.58,1.74c-2.57,1.57-4.21,3.52-3.69,4.38c0.17,0.24,0.51,0.38,0.96,0.38
				c1.06,0,2.8-0.62,4.58-1.74c2.53-1.57,4.17-3.52,3.66-4.38C259.93,47.71,259.59,47.58,259.11,47.58"/>
			<path class="st21" d="M257.95,56.16c-0.17,0-0.38,0-0.58,0c-3.01,0.1-5.4,0.99-5.37,1.95c0.03,0.96,2.19,1.64,4.93,1.64
				c0.17,0,0.38,0,0.55,0c3.01-0.1,5.4-0.99,5.37-1.98C262.8,56.85,260.65,56.16,257.95,56.16"/>
		</g>
		<g>
			<polygon class="st12" points="260.96,82.02 260.96,82.47 260.96,116.44 280.52,116.44 280.52,111.92 266.22,111.92 266.22,82.02 
							"/>
			<polygon class="st12" points="303.68,86.54 303.68,82.02 284.66,82.02 284.66,116.44 304.43,116.44 304.43,111.92 289.93,111.92 
				289.93,100.74 302.89,100.74 302.89,100.29 302.89,96.25 289.93,96.25 289.93,86.54 			"/>
			<path class="st12" d="M325.92,86.2c3.32,0,5.47,0.58,7.22,1.4l0.48,0.21l1.37-4.38l-0.34-0.17c-1.54-0.72-4.65-1.57-8.59-1.57
				c-5.71,0-10.36,1.85-13.61,5.03c-3.22,3.18-4.99,7.63-4.99,12.73c0,5.3,1.81,9.92,4.82,12.79l0,0c3.39,3.22,7.7,4.55,12.83,4.55
				c4.58,0,8.52-1.09,10.5-1.88l0.27-0.1v-0.31V97.93h-11.94v4.38h6.77v9.27c-0.96,0.41-2.77,0.75-5.34,0.75
				c-3.83,0-6.94-1.23-9.1-3.45c-2.16-2.22-3.39-5.47-3.39-9.65c0-4.1,1.3-7.35,3.56-9.58S321.95,86.2,325.92,86.2"/>
			<path class="st12" d="M349.18,101.62l3.08-9.1c0.55-1.54,0.96-3.11,1.33-4.62c0.38,1.47,0.82,3.01,1.37,4.65l3.15,9.06H349.18z
				 M356.63,82.02h-5.82l-11.73,34.41h5.4l3.49-10.54h11.25l3.59,10.54h5.54L356.63,82.02z"/>
			<polygon class="st12" points="372.4,82.02 372.4,82.47 372.4,116.44 392,116.44 392,111.92 377.67,111.92 377.67,82.02 			"/>
		</g>
	</g>
</g>
<g>
	<path class="st12" d="M70.87,244.55v-18.16h3.84v7.49h7.79v-7.49h3.83v18.16H82.5v-7.5h-7.79v7.5H70.87z"/>
	<path class="st12" d="M108.1,244.55v-18.16h12.23v3.17h-8.4v4.33h7.77v3.16h-7.77v4.34h8.43v3.16H108.1z"/>
	<path class="st12" d="M141.99,244.55v-18.16h3.84v14.99h7.78v3.16H141.99z"/>
	<path class="st12" d="M174.76,244.55v-18.16h7.16c1.38,0,2.55,0.26,3.52,0.78c0.97,0.52,1.71,1.25,2.22,2.17
		c0.51,0.93,0.77,1.99,0.77,3.2c0,1.21-0.26,2.27-0.78,3.19c-0.52,0.92-1.27,1.64-2.26,2.15s-2.17,0.77-3.57,0.77h-4.57v-3.08h3.95
		c0.74,0,1.35-0.13,1.83-0.39s0.84-0.62,1.08-1.07c0.24-0.46,0.36-0.98,0.36-1.58c0-0.6-0.12-1.13-0.36-1.58
		c-0.24-0.45-0.6-0.8-1.09-1.05c-0.48-0.25-1.1-0.38-1.84-0.38h-2.59v15.02H174.76z"/>
	<path class="st12" d="M213.37,226.39v18.16h-3.84v-18.16H213.37z"/>
	<path class="st12" d="M250.32,226.39v18.16h-3.32l-7.9-11.43h-0.13v11.43h-3.84v-18.16h3.37l7.84,11.42h0.16v-11.42H250.32z"/>
	<path class="st12" d="M284.13,232.26c-0.12-0.43-0.3-0.81-0.52-1.15c-0.22-0.33-0.5-0.62-0.82-0.85c-0.32-0.23-0.69-0.41-1.1-0.54
		c-0.41-0.12-0.86-0.19-1.36-0.19c-0.93,0-1.74,0.23-2.44,0.69c-0.7,0.46-1.25,1.13-1.64,2.01c-0.39,0.88-0.58,1.95-0.58,3.21
		c0,1.26,0.19,2.34,0.58,3.23c0.38,0.89,0.93,1.56,1.63,2.03c0.7,0.46,1.53,0.7,2.49,0.7c0.87,0,1.61-0.15,2.23-0.47
		c0.62-0.31,1.09-0.75,1.42-1.32c0.33-0.57,0.49-1.24,0.49-2.01l0.78,0.11h-4.68v-2.89h7.6v2.29c0,1.6-0.34,2.97-1.01,4.11
		c-0.67,1.14-1.6,2.02-2.78,2.64c-1.18,0.62-2.54,0.93-4.06,0.93c-1.7,0-3.2-0.38-4.49-1.13c-1.29-0.75-2.29-1.83-3.01-3.22
		c-0.72-1.39-1.08-3.05-1.08-4.96c0-1.47,0.21-2.79,0.64-3.94c0.43-1.16,1.03-2.14,1.8-2.94c0.77-0.8,1.68-1.42,2.7-1.84
		c1.03-0.42,2.14-0.63,3.34-0.63c1.03,0,1.99,0.15,2.87,0.45c0.89,0.3,1.67,0.72,2.36,1.26c0.69,0.54,1.25,1.19,1.69,1.94
		c0.44,0.75,0.72,1.57,0.84,2.47H284.13z"/>
	<path class="st12" d="M334.07,244.55v-18.16h3.84v7.49h7.79v-7.49h3.83v18.16h-3.83v-7.5h-7.79v7.5H334.07z"/>
	<path class="st12" d="M374.43,244.55h-4.11l6.27-18.16h4.95l6.26,18.16h-4.11l-4.55-14.01h-0.14L374.43,244.55z M374.17,237.41
		h9.72v3h-9.72V237.41z"/>
	<path class="st12" d="M423.76,226.39v18.16h-3.32l-7.9-11.43h-0.13v11.43h-3.84v-18.16h3.37l7.84,11.42h0.16v-11.42H423.76z"/>
	<path class="st12" d="M451.96,244.55h-6.44v-18.16h6.49c1.83,0,3.4,0.36,4.72,1.09s2.33,1.76,3.05,3.12s1.07,2.97,1.07,4.86
		c0,1.89-0.36,3.52-1.07,4.88c-0.71,1.36-1.73,2.4-3.06,3.13C455.39,244.18,453.81,244.55,451.96,244.55z M449.36,241.26h2.44
		c1.14,0,2.09-0.2,2.87-0.61c0.78-0.41,1.36-1.03,1.76-1.89s0.59-1.96,0.59-3.31c0-1.34-0.2-2.44-0.59-3.29
		c-0.39-0.85-0.98-1.48-1.75-1.88c-0.77-0.4-1.73-0.6-2.86-0.6h-2.45V241.26z"/>
	<path class="st12" d="M492.13,231.61c-0.07-0.72-0.37-1.27-0.91-1.67c-0.54-0.4-1.27-0.59-2.19-0.59c-0.63,0-1.16,0.09-1.59,0.26
		c-0.43,0.17-0.76,0.42-0.99,0.72c-0.23,0.31-0.34,0.66-0.34,1.05c-0.01,0.33,0.06,0.61,0.21,0.85c0.15,0.24,0.36,0.45,0.62,0.62
		c0.27,0.17,0.57,0.33,0.92,0.45c0.35,0.13,0.72,0.23,1.12,0.32l1.63,0.39c0.79,0.18,1.52,0.41,2.18,0.71
		c0.66,0.3,1.24,0.66,1.72,1.09c0.48,0.43,0.86,0.94,1.13,1.53c0.27,0.58,0.41,1.26,0.41,2.01c-0.01,1.11-0.29,2.07-0.85,2.89
		c-0.56,0.81-1.36,1.44-2.41,1.89c-1.05,0.45-2.31,0.67-3.79,0.67c-1.47,0-2.74-0.22-3.83-0.67c-1.08-0.45-1.93-1.12-2.54-2
		c-0.61-0.88-0.92-1.98-0.95-3.28h3.72c0.04,0.61,0.22,1.12,0.53,1.52c0.31,0.41,0.73,0.71,1.25,0.91c0.52,0.2,1.12,0.31,1.78,0.31
		c0.65,0,1.22-0.09,1.7-0.28c0.48-0.19,0.86-0.45,1.12-0.79s0.4-0.72,0.4-1.16c0-0.41-0.12-0.75-0.36-1.03
		c-0.24-0.28-0.59-0.51-1.05-0.71c-0.46-0.2-1.02-0.37-1.68-0.53l-1.98-0.5c-1.53-0.37-2.74-0.95-3.63-1.75
		c-0.89-0.79-1.33-1.86-1.32-3.2c-0.01-1.1,0.29-2.06,0.88-2.88c0.59-0.82,1.41-1.46,2.45-1.92c1.04-0.46,2.22-0.69,3.55-0.69
		c1.35,0,2.53,0.23,3.53,0.69c1.01,0.46,1.79,1.1,2.35,1.92c0.56,0.82,0.85,1.77,0.87,2.85H492.13z"/>
</g>
</svg>
